<svg width="17" height="50" viewBox="0 0 17 50" fill="none" xmlns="http://www.w3.org/2000/svg">
<path d="M1.71875 41.4286H3.4375V27.3214H1.71875C0.769484 27.3214 0 26.447 0 25.3683V20.7031C0 19.6244 0.769484 18.75 1.71875 18.75H11.3438C12.293 18.75 13.0625 19.6244 13.0625 20.7031V41.4286H14.7812C15.7305 41.4286 16.5 42.303 16.5 43.3817V48.0469C16.5 49.1256 15.7305 50 14.7812 50H1.71875C0.769484 50 0 49.1256 0 48.0469V43.3817C0 42.303 0.769484 41.4286 1.71875 41.4286ZM8.25 0C4.8327 0 2.0625 3.14795 2.0625 7.03125C2.0625 10.9146 4.8327 14.0625 8.25 14.0625C11.6673 14.0625 14.4375 10.9146 14.4375 7.03125C14.4375 3.14795 11.6672 0 8.25 0Z" fill="white"/>
</svg>
